<svg width="784" height="396" viewBox="0 0 784 396" fill="none" xmlns="http://www.w3.org/2000/svg">
<path d="M636.902 52.974L392 291.702L147.098 52.974C142.722 48.7001 136.849 46.3074 130.732 46.3074C124.615 46.3074 118.742 48.7001 114.366 52.974C112.247 55.0499 110.564 57.5276 109.415 60.2621C108.266 62.9966 107.674 65.9329 107.674 68.899C107.674 71.8651 108.266 74.8014 109.415 77.5359C110.564 80.2704 112.247 82.7481 114.366 84.824L374.899 338.84C379.474 343.3 385.611 345.796 392 345.796C398.389 345.796 404.526 343.3 409.101 338.84L669.634 84.873C671.768 82.7956 673.463 80.3118 674.621 77.5682C675.779 74.8246 676.376 71.8769 676.376 68.899C676.376 65.9211 675.779 62.9733 674.621 60.2298C673.463 57.4862 671.768 55.0024 669.634 52.925C665.258 48.6511 659.385 46.2584 653.268 46.2584C647.151 46.2584 641.278 48.6511 636.902 52.925V52.974Z" fill="white"/>
</svg>
