<svg width="80" height="80" viewBox="0 0 80 80" fill="none" xmlns="http://www.w3.org/2000/svg">
<path d="M56.6668 70V63.3333C56.6668 59.7971 55.2621 56.4057 52.7616 53.9052C50.2611 51.4048 46.8697 50 43.3335 50H16.6668C13.1306 50 9.73922 51.4048 7.23874 53.9052C4.73825 56.4057 3.3335 59.7971 3.3335 63.3333V70" stroke="#FF3800" stroke-width="2" stroke-linecap="round" stroke-linejoin="round"/>
<path d="M29.9998 36.6667C37.3636 36.6667 43.3332 30.6971 43.3332 23.3333C43.3332 15.9695 37.3636 10 29.9998 10C22.636 10 16.6665 15.9695 16.6665 23.3333C16.6665 30.6971 22.636 36.6667 29.9998 36.6667Z" stroke="#FF3800" stroke-width="2" stroke-linecap="round" stroke-linejoin="round"/>
<path d="M76.6665 70V63.3333C76.6643 60.3791 75.681 57.5093 73.8711 55.1744C72.0611 52.8395 69.5269 51.1719 66.6665 50.4333" stroke="#FF3800" stroke-width="2" stroke-linecap="round" stroke-linejoin="round"/>
<path d="M53.3335 10.4333C56.2015 11.1677 58.7436 12.8357 60.559 15.1744C62.3743 17.5131 63.3596 20.3894 63.3596 23.35C63.3596 26.3106 62.3743 29.1869 60.559 31.5256C58.7436 33.8643 56.2015 35.5323 53.3335 36.2667" stroke="#FF3800" stroke-width="2" stroke-linecap="round" stroke-linejoin="round"/>
</svg>
