<svg width="80" height="80" viewBox="0 0 80 80" fill="none" xmlns="http://www.w3.org/2000/svg">
<path d="M40 50C45.5228 50 50 45.5228 50 40C50 34.4772 45.5228 30 40 30C34.4772 30 30 34.4772 30 40C30 45.5228 34.4772 50 40 50Z" stroke="#FF3800" stroke-width="2" stroke-linecap="round" stroke-linejoin="round"/>
<path d="M64.6668 50C64.2231 51.0054 64.0908 52.1206 64.2868 53.2019C64.4829 54.2833 64.9984 55.2811 65.7668 56.0666L65.9668 56.2666C66.5867 56.8858 67.0784 57.6211 67.4139 58.4304C67.7494 59.2397 67.9221 60.1072 67.9221 60.9833C67.9221 61.8594 67.7494 62.7269 67.4139 63.5363C67.0784 64.3456 66.5867 65.0808 65.9668 65.7C65.3477 66.3198 64.6124 66.8116 63.8031 67.147C62.9938 67.4825 62.1263 67.6552 61.2502 67.6552C60.3741 67.6552 59.5066 67.4825 58.6972 67.147C57.8879 66.8116 57.1526 66.3198 56.5335 65.7L56.3335 65.5C55.5479 64.7315 54.5501 64.216 53.4688 64.02C52.3875 63.8239 51.2722 63.9563 50.2668 64.4C49.2809 64.8225 48.4401 65.5241 47.8479 66.4184C47.2556 67.3127 46.9378 68.3607 46.9335 69.4333V70C46.9335 71.7681 46.2311 73.4638 44.9809 74.714C43.7306 75.9643 42.0349 76.6666 40.2668 76.6666C38.4987 76.6666 36.803 75.9643 35.5528 74.714C34.3025 73.4638 33.6002 71.7681 33.6002 70V69.7C33.5744 68.5967 33.2172 67.5266 32.5752 66.629C31.9332 65.7313 31.0359 65.0476 30.0002 64.6666C28.9948 64.2229 27.8795 64.0906 26.7982 64.2866C25.7169 64.4827 24.7191 64.9982 23.9335 65.7666L23.7335 65.9667C23.1143 66.5865 22.3791 67.0782 21.5698 67.4137C20.7604 67.7492 19.8929 67.9219 19.0168 67.9219C18.1407 67.9219 17.2732 67.7492 16.4639 67.4137C15.6546 67.0782 14.9193 66.5865 14.3002 65.9667C13.6803 65.3475 13.1886 64.6122 12.8531 63.8029C12.5176 62.9936 12.3449 62.1261 12.3449 61.25C12.3449 60.3739 12.5176 59.5064 12.8531 58.697C13.1886 57.8877 13.6803 57.1525 14.3002 56.5333L14.5002 56.3333C15.2686 55.5477 15.7841 54.5499 15.9802 53.4686C16.1762 52.3873 16.0439 51.272 15.6002 50.2666C15.1776 49.2808 14.476 48.4399 13.5817 47.8477C12.6874 47.2554 11.6395 46.9376 10.5668 46.9333H10.0002C8.23205 46.9333 6.53636 46.2309 5.28612 44.9807C4.03588 43.7304 3.3335 42.0348 3.3335 40.2666C3.3335 38.4985 4.03588 36.8028 5.28612 35.5526C6.53636 34.3024 8.23205 33.6 10.0002 33.6H10.3002C11.4035 33.5742 12.4735 33.217 13.3712 32.575C14.2688 31.933 14.9525 31.0358 15.3335 30C15.7772 28.9946 15.9096 27.8793 15.7135 26.798C15.5174 25.7167 15.002 24.7189 14.2335 23.9333L14.0335 23.7333C13.4137 23.1142 12.9219 22.3789 12.5864 21.5696C12.2509 20.7603 12.0783 19.8928 12.0783 19.0166C12.0783 18.1405 12.2509 17.273 12.5864 16.4637C12.9219 15.6544 13.4137 14.9191 14.0335 14.3C14.6527 13.6801 15.3879 13.1884 16.1972 12.8529C17.0065 12.5174 17.8741 12.3447 18.7502 12.3447C19.6263 12.3447 20.4938 12.5174 21.3031 12.8529C22.1124 13.1884 22.8477 13.6801 23.4668 14.3L23.6668 14.5C24.4524 15.2684 25.4502 15.7839 26.5315 15.98C27.6129 16.1761 28.7281 16.0437 29.7335 15.6H30.0002C30.9861 15.1774 31.8269 14.4758 32.4191 13.5815C33.0114 12.6872 33.3292 11.6393 33.3335 10.5666V9.99998C33.3335 8.23187 34.0359 6.53618 35.2861 5.28593C36.5364 4.03569 38.2321 3.33331 40.0002 3.33331C41.7683 3.33331 43.464 4.03569 44.7142 5.28593C45.9645 6.53618 46.6668 8.23187 46.6668 9.99998V10.3C46.6711 11.3726 46.9889 12.4206 47.5812 13.3149C48.1734 14.2092 49.0143 14.9108 50.0002 15.3333C51.0056 15.777 52.1208 15.9094 53.2021 15.7133C54.2834 15.5173 55.2812 15.0018 56.0668 14.2333L56.2668 14.0333C56.886 13.4135 57.6212 12.9217 58.4306 12.5862C59.2399 12.2508 60.1074 12.0781 60.9835 12.0781C61.8596 12.0781 62.7271 12.2508 63.5364 12.5862C64.3458 12.9217 65.081 13.4135 65.7002 14.0333C66.32 14.6525 66.8117 15.3877 67.1472 16.197C67.4827 17.0064 67.6554 17.8739 67.6554 18.75C67.6554 19.6261 67.4827 20.4936 67.1472 21.3029C66.8117 22.1122 66.32 22.8475 65.7002 23.4666L65.5002 23.6666C64.7317 24.4522 64.2162 25.45 64.0202 26.5314C63.8241 27.6127 63.9564 28.7279 64.4002 29.7333V30C64.8227 30.9859 65.5243 31.8267 66.4186 32.419C67.3129 33.0112 68.3609 33.329 69.4335 33.3333H70.0002C71.7683 33.3333 73.464 34.0357 74.7142 35.2859C75.9645 36.5362 76.6668 38.2319 76.6668 40C76.6668 41.7681 75.9645 43.4638 74.7142 44.714C73.464 45.9643 71.7683 46.6666 70.0002 46.6666H69.7002C68.6275 46.6709 67.5796 46.9888 66.6853 47.581C65.791 48.1733 65.0894 49.0141 64.6668 50V50Z" stroke="#FF3800" stroke-width="2" stroke-linecap="round" stroke-linejoin="round"/>
</svg>
