<svg width="80" height="80" viewBox="0 0 80 80" fill="none" xmlns="http://www.w3.org/2000/svg">
<path d="M79.9877 47.2313C79.9952 45.5863 79.7364 39.38 79.5389 37.605C77.2639 17.2337 60.7302 2.44873 40.2277 2.44873C18.8727 2.44873 1.57027 18.9037 0.396445 40.7225C0.371445 41.1987 0.196445 44.5775 0.183945 46.5887L0.177695 47.7075C0.0751953 48.17 0.0126953 48.6475 0.0126953 49.14V70.91C0.0126953 74.5725 2.99144 77.5512 6.65394 77.5512H13.3952C17.0577 77.5512 20.0376 74.5725 20.0376 70.91V49.1412C20.0376 45.4787 17.0564 42.5 13.3951 42.5H6.65137C6.20042 42.5 5.75063 42.5457 5.30887 42.6362C5.34637 41.8251 5.38012 41.1838 5.38887 40.9913C6.41894 21.8676 21.5714 7.44881 40.2276 7.44881C58.1401 7.44881 72.5814 20.3663 74.5689 38.1613C74.6539 38.9038 74.7614 40.7913 74.8477 42.6863C74.3602 42.5738 73.8626 42.5 73.3451 42.5H66.6826C63.0201 42.5 60.0414 45.4787 60.0414 49.1412V70.8336C60.0414 74.4973 63.0201 77.4748 66.6826 77.4748H73.3451C77.0076 77.4748 79.9876 74.4961 79.9876 70.8336V49.1412C79.9876 48.7337 79.9376 48.3375 79.8651 47.9525C79.9376 47.7225 79.9851 47.4824 79.9877 47.2311V47.2313ZM6.65145 47.5H13.3927C14.2989 47.5 15.0351 48.235 15.0351 49.1412V70.9112C15.0351 71.8187 14.2976 72.5525 13.3926 72.5525H6.65137C5.74512 72.5525 5.01012 71.8174 5.01012 70.9112V49.1412C5.01262 48.235 5.74762 47.5 6.65145 47.5V47.5ZM74.9877 70.8325C74.9877 71.7387 74.2502 72.4737 73.3453 72.4737H66.6828C65.7765 72.4737 65.0414 71.7387 65.0414 70.8325V49.1412C65.0414 48.235 65.7765 47.5001 66.6827 47.5001H73.3452C74.2514 47.5001 74.9877 48.2351 74.9877 49.1412V70.8325Z" fill="#FF3800"/>
</svg>
