<svg width="50" height="50" viewBox="0 0 50 50" fill="none" xmlns="http://www.w3.org/2000/svg">
<path d="M49.9922 29.5195C49.9969 28.4914 49.8352 24.6124 49.7117 23.5031C48.2898 10.771 37.9563 1.5304 25.1422 1.5304C11.7953 1.5304 0.981299 11.8148 0.247656 25.4515C0.232031 25.7491 0.122656 27.8609 0.114844 29.1179L0.110937 29.8171C0.046875 30.1062 0.0078125 30.4046 0.0078125 30.7124V44.3187C0.0078125 46.6077 1.86953 48.4695 4.15859 48.4695H8.37187C10.6609 48.4695 12.5234 46.6077 12.5234 44.3187V30.7132C12.5234 28.4241 10.6601 26.5624 8.37183 26.5624H4.15698C3.87514 26.5625 3.59402 26.591 3.31792 26.6476C3.34136 26.1406 3.36245 25.7398 3.36792 25.6195C4.01172 13.6672 13.482 4.65544 25.1421 4.65544C36.3375 4.65544 45.3632 12.7289 46.6054 23.8508C46.6585 24.3148 46.7257 25.4945 46.7797 26.6789C46.475 26.6086 46.164 26.5624 45.8406 26.5624H41.6765C39.3875 26.5624 37.5257 28.4241 37.5257 30.7132V44.271C37.5257 46.5608 39.3875 48.4217 41.6765 48.4217H45.8406C48.1296 48.4217 49.9921 46.56 49.9921 44.271V30.7132C49.9921 30.4585 49.9609 30.2109 49.9156 29.9702C49.9609 29.8265 49.9906 29.6764 49.9922 29.5194V29.5195ZM4.15703 29.6874H8.37031C8.93672 29.6874 9.39683 30.1468 9.39683 30.7132V44.3195C9.39683 44.8866 8.93589 45.3452 8.37026 45.3452H4.15698C3.59058 45.3452 3.1312 44.8858 3.1312 44.3195V30.7132C3.13276 30.1468 3.59214 29.6874 4.15703 29.6874V29.6874ZM46.8672 44.2702C46.8672 44.8366 46.4063 45.296 45.8407 45.296H41.6766C41.1102 45.296 40.6508 44.8366 40.6508 44.2702V30.7132C40.6508 30.1468 41.1102 29.6875 41.6766 29.6875H45.8406C46.407 29.6875 46.8672 30.1469 46.8672 30.7132V44.2702Z" fill="#FF3800"/>
</svg>
