<svg width="49" height="50" viewBox="0 0 49 50" fill="none" xmlns="http://www.w3.org/2000/svg">
<path fill-rule="evenodd" clip-rule="evenodd" d="M23.1346 1.61326C14.2346 2.17888 9.58384 7.32732 9.17773 16.6375H18.1558C18.2682 13.4125 20.0303 11.0015 23.3113 10.6461C26.5319 10.2969 29.5873 11.0804 30.5127 13.3297C31.5123 15.7594 29.2683 18.5828 28.2014 19.7679C26.2267 21.9656 23.0191 23.5687 21.3565 25.9398C19.7267 28.2633 19.4368 31.3203 19.3114 35.0617H27.224C27.3349 32.6695 27.4909 30.3781 28.5563 28.8914C30.2893 26.4758 32.8774 25.3437 35.0464 23.4359C37.1183 21.6125 39.298 19.4148 39.6681 16.0133C40.7794 5.83279 32.6442 1.00701 23.1346 1.61326Z" fill="#FF3800"/>
<path d="M23.338 48.4374C26.097 48.4374 28.3337 46.1873 28.3337 43.4116C28.3337 40.636 26.097 38.3859 23.338 38.3859C20.5789 38.3859 18.3423 40.636 18.3423 43.4116C18.3423 46.1873 20.5789 48.4374 23.338 48.4374Z" fill="#FF3800"/>
</svg>
