<svg width="50" height="50" viewBox="0 0 50 50" fill="none" xmlns="http://www.w3.org/2000/svg">
<g clip-path="url(#clip0_954_34)">
<path d="M31.6667 48.3333H30C30 48.6429 30.0862 48.9463 30.2489 49.2096C30.4116 49.4728 30.6445 49.6856 30.9213 49.824C31.1982 49.9625 31.5081 50.0211 31.8163 49.9933C32.1246 49.9655 32.4191 49.8524 32.6667 49.6667L31.6667 48.3333ZM38.3333 43.3333L39.3333 42C39.0448 41.7836 38.6939 41.6667 38.3333 41.6667C37.9727 41.6667 37.6218 41.7836 37.3333 42L38.3333 43.3333V43.3333ZM45 48.3333L44 49.6667C44.2476 49.8524 44.5421 49.9655 44.8503 49.9933C45.1586 50.0211 45.4685 49.9625 45.7454 49.824C46.0222 49.6856 46.255 49.4728 46.4178 49.2096C46.5805 48.9463 46.6667 48.6429 46.6667 48.3333H45ZM38.3333 36.6667C36.1232 36.6667 34.0036 35.7887 32.4408 34.2259C30.878 32.6631 30 30.5435 30 28.3333H26.6667C26.6667 31.4275 27.8958 34.395 30.0838 36.5829C32.2717 38.7708 35.2391 40 38.3333 40V36.6667ZM46.6667 28.3333C46.6667 30.5435 45.7887 32.6631 44.2259 34.2259C42.6631 35.7887 40.5435 36.6667 38.3333 36.6667V40C41.4275 40 44.395 38.7708 46.5829 36.5829C48.7708 34.395 50 31.4275 50 28.3333H46.6667ZM38.3333 20C40.5435 20 42.6631 20.878 44.2259 22.4408C45.7887 24.0036 46.6667 26.1232 46.6667 28.3333H50C50 25.2391 48.7708 22.2717 46.5829 20.0838C44.395 17.8958 41.4275 16.6667 38.3333 16.6667V20ZM38.3333 16.6667C35.2391 16.6667 32.2717 17.8958 30.0838 20.0838C27.8958 22.2717 26.6667 25.2391 26.6667 28.3333H30C30 26.1232 30.878 24.0036 32.4408 22.4408C34.0036 20.878 36.1232 20 38.3333 20V16.6667ZM30 35V48.3333H33.3333V35H30ZM32.6667 49.6667L39.3333 44.6667L37.3333 42L30.6667 47L32.6667 49.6667ZM37.3333 44.6667L44 49.6667L46 47L39.3333 42L37.3333 44.6667ZM46.6667 48.3333V35H43.3333V48.3333H46.6667ZM50 16.6667V5H46.6667V16.6667H50ZM45 0H5V3.33333H45V0ZM0 5V45H3.33333V5H0ZM5 50H26.6667V46.6667H5V50ZM0 45C0 46.3261 0.526784 47.5979 1.46447 48.5355C2.40215 49.4732 3.67392 50 5 50V46.6667C4.55797 46.6667 4.13405 46.4911 3.82149 46.1785C3.50893 45.866 3.33333 45.442 3.33333 45H0ZM5 0C3.67392 0 2.40215 0.526784 1.46447 1.46447C0.526784 2.40215 0 3.67392 0 5H3.33333C3.33333 4.55797 3.50893 4.13405 3.82149 3.82149C4.13405 3.50893 4.55797 3.33333 5 3.33333V0ZM50 5C50 3.67392 49.4732 2.40215 48.5355 1.46447C47.5979 0.526784 46.3261 0 45 0V3.33333C45.442 3.33333 45.866 3.50893 46.1785 3.82149C46.4911 4.13405 46.6667 4.55797 46.6667 5H50ZM10 16.6667H26.6667V13.3333H10V16.6667ZM10 26.6667H20V23.3333H10V26.6667Z" fill="#FF3800"/>
</g>
<defs>
<clipPath id="clip0_954_34">
<rect width="50" height="50" fill="white"/>
</clipPath>
</defs>
</svg>
