<svg width="50" height="50" viewBox="0 0 50 50" fill="none" xmlns="http://www.w3.org/2000/svg">
<g clip-path="url(#clip0_702_13)">
<path d="M14.2973 36.875C13.6854 36.8759 13.0945 36.6516 12.6373 36.245L-0.0126953 25L13.3398 13.13C13.8375 12.7042 14.4824 12.4908 15.1358 12.5355C15.7893 12.5803 16.3991 12.8797 16.834 13.3694C17.269 13.8591 17.4944 14.4999 17.4619 15.1541C17.4293 15.8082 17.1413 16.4235 16.6598 16.8675L7.51231 25L15.9573 32.505C16.3367 32.8416 16.6047 33.2857 16.7258 33.7783C16.8469 34.2708 16.8152 34.7886 16.6351 35.2628C16.455 35.7369 16.1349 36.1451 15.7174 36.433C15.2998 36.721 14.8045 36.8751 14.2973 36.875V36.875ZM36.6598 36.87L50.0123 25L37.3623 13.755C36.8667 13.3147 36.2165 13.0894 35.5547 13.1285C34.8929 13.1677 34.2738 13.4681 33.8336 13.9637C33.3933 14.4594 33.168 15.1096 33.2071 15.7713C33.2463 16.4331 33.5467 17.0522 34.0423 17.4925L42.4873 25L33.3398 33.13C32.8439 33.5702 32.5431 34.1895 32.5037 34.8515C32.4643 35.5135 32.6895 36.164 33.1298 36.66C33.5701 37.1559 34.1893 37.4567 34.8513 37.4961C35.5133 37.5355 36.1638 37.3102 36.6598 36.87V36.87ZM24.9648 40.4125L29.9648 10.4125C30.0287 10.0846 30.0263 9.74727 29.9577 9.42035C29.8891 9.09343 29.7556 8.78359 29.5652 8.50911C29.3748 8.23463 29.1314 8.0011 28.8492 7.82229C28.567 7.64349 28.2519 7.52304 27.9224 7.46807C27.5929 7.4131 27.2558 7.42472 26.9309 7.50224C26.6059 7.57976 26.2998 7.72162 26.0307 7.91942C25.7615 8.11722 25.5347 8.36696 25.3636 8.6539C25.1926 8.94083 25.0808 9.25912 25.0348 9.58999L20.0348 39.59C19.9709 39.9179 19.9733 40.2552 20.0419 40.5821C20.1106 40.909 20.244 41.2189 20.4344 41.4934C20.6248 41.7678 20.8682 42.0014 21.1504 42.1802C21.4326 42.359 21.7477 42.4794 22.0772 42.5344C22.4067 42.5894 22.7438 42.5778 23.0688 42.5002C23.3937 42.4227 23.6998 42.2809 23.969 42.0831C24.2381 41.8853 24.4649 41.6355 24.636 41.3486C24.807 41.0617 24.9188 40.7434 24.9648 40.4125V40.4125Z" fill="#FF3800"/>
</g>
<defs>
<clipPath id="clip0_702_13">
<rect width="50" height="50" fill="white"/>
</clipPath>
</defs>
</svg>
